<svg xmlns="http://www.w3.org/2000/svg" xmlns:xlink="http://www.w3.org/1999/xlink" width="324.996" height="240.011" viewBox="0 0 324.996 240.011">
  <defs>
    <style>
      .cls-1, .cls-6 {
        fill: none;
      }

      .cls-2 {
        fill: #ffbb3c;
      }

      .cls-3 {
        clip-path: url(#clip-path);
      }

      .cls-4 {
        opacity: 0.6;
      }

      .cls-5 {
        clip-path: url(#clip-path-2);
      }

      .cls-6 {
        stroke: #f28b50;
        stroke-miterlimit: 10;
        stroke-width: 2px;
      }
    </style>
    <clipPath id="clip-path">
      <path id="Caminho_23396" data-name="Caminho 23396" class="cls-1" d="M950.5,334.976c-10.26,4.291-20.425,10.291-27.268,19.242,0,0-8.094,9.437-22.953,18.513s-32.2,14.95-40.107,21.622c-7.446,6.286-9.282,17.275-12.284,26.683-3.592,11.253-7.278,22.71-7.447,34.551-1.292,90.733,50.747,84.343,50.747,84.343,15.478-1.839,23.858-23.163,39.421-23.934,7.176-.355,13.879,4.062,18.573,9.649s7.606,12.485,11.581,18.632c17.857,27.612,46.18,28.631,63.879,26.946,40.376-3.846,60.772-32.021,66.284-51.026,7.95-27.407,4.792-61.1-9.072-84.53-8.9-15.04-19.36-27.028-39.864-28.61a134.508,134.508,0,0,0-21.252-.332c-6.758.6-12.309-1.354-16.909-6.475-4.553-5.069-4.991-12.612-5.24-19.5-.591-16.428-2.807-35.325-16.177-44.358a28.751,28.751,0,0,0-16.257-4.665,41.06,41.06,0,0,0-15.657,3.256" transform="translate(-840.419 -331.72)"/>
    </clipPath>
    <clipPath id="clip-path-2">
      <rect id="Retângulo_2395" data-name="Retângulo 2395" class="cls-1" width="149.278" height="232.911"/>
    </clipPath>
  </defs>
  <g id="Grupo_5170" data-name="Grupo 5170" transform="translate(19500.67 15544.433)">
    <path id="Caminho_23394" data-name="Caminho 23394" class="cls-2" d="M1033.7,435.666c-9.012-15.04-19.6-27.028-40.366-28.61a137.766,137.766,0,0,0-21.519-.332c-6.843.6-12.463-1.356-17.12-6.477-4.61-5.069-5.054-12.611-5.305-19.5-.6-16.429-2.842-35.325-16.381-44.359-9.372-6.253-21.924-5.7-32.314-1.408-8.864,3.661-17.65,8.573-24.344,15.492l-.038.028c-13.576,10.287-57.862,18.025-81.336,22.788s-36.777,17.2-36.777,17.2c-40.95,29.374-38.363,78.884-32.98,94.26s13.612,30.032,25.685,40.813c18.9,16.876,45.374,22.611,70.535,21.769,7.117-.238,14.364-.986,20.87-3.922,8.948-4.036,15.674-11.8,23.844-17.283,6.85-4.593,14.454-8.7,22.574-7.466a15.561,15.561,0,0,1,4.475,1.361,32.251,32.251,0,0,1,6.159,5.625c4.752,5.588,7.7,12.486,11.727,18.633,18.082,27.612,46.76,28.631,64.682,26.945,40.884-3.846,61.536-32.02,67.117-51.025,8.049-27.407,4.853-61.1-9.186-84.53" transform="translate(-20222.9 -15876.153)"/>
    <g id="Grupo_2033" data-name="Grupo 2033" transform="translate(-19430.469 -15544.434)">
      <g id="Grupo_2032" data-name="Grupo 2032" class="cls-3">
        <g id="Grupo_2031" data-name="Grupo 2031" class="cls-4" transform="translate(118.952 64.444)">
          <g id="Grupo_2030" data-name="Grupo 2030">
            <g id="Grupo_2029" data-name="Grupo 2029" class="cls-5">
              <path id="Caminho_23395" data-name="Caminho 23395" class="cls-6" d="M1199.91,600.519c5.375-27.142.161-55.671-10.578-81.078-3.453-8.17-9.366-17.3-18.025-16.859-4.306.221-8.09,2.884-11.516,5.572-7.333,5.753-14.541,12.522-17.422,21.527-2.42,7.564-1.488,15.755-1.071,23.7s.138,16.462-4.225,23.041-14.176,9.862-20.092,4.72c-3.06-2.659-4.4-6.837-5.223-10.867a65.833,65.833,0,0,1,4.712-40.427c4.745-10.235,12.054-18.985,17.386-28.911s8.605-22.049,4.468-32.559c-2.918-7.412-9.1-12.942-15.6-17.348-6.215-4.216-13.78-7.786-20.918-5.6-6.567,2.011-10.926,8.365-13.888,14.714a78.708,78.708,0,0,0-6.659,42.982c1.645,12.8,6.415,24.955,9.007,37.591,1.714,8.358,2.406,17.373-.973,25.178-.955,2.205-2.357,4.391-4.526,5.317-5.515,2.353-10.562-4.529-16.415-5.752-4.083-.854-8.4,1.323-10.934,4.72s-3.5,7.805-3.528,12.086c-.073,10.6,5.062,20.45,10.605,29.389,3.488,5.625,7.294,11.214,12.513,15.181,5.833,4.434,13.061,6.558,19.029,10.8a33.708,33.708,0,0,1,12.061,15.972c2.026,5.634,2.4,12.4-1.038,17.26-3.72,5.261-11.1,6.786-17.145,4.866s-10.892-6.653-14.647-11.888a60.917,60.917,0,0,1-8.566-52.1c4.82-15.992,18.621-30.48,34.909-29.952,5.719.185,11.264,2.173,16.361,4.843,23.1,12.1,37.574,39.621,34.77,66.1" transform="translate(-1053.329 -444.196)"/>
            </g>
          </g>
        </g>
      </g>
    </g>
  </g>
</svg>
