<svg xmlns="http://www.w3.org/2000/svg" xmlns:xlink="http://www.w3.org/1999/xlink" width="223.381" height="164.968" viewBox="0 0 223.381 164.968">
  <defs>
    <style>
      .cls-1, .cls-6 {
        fill: none;
      }

      .cls-2 {
        fill: #ffbb3c;
      }

      .cls-3 {
        clip-path: url(#clip-path);
      }

      .cls-4 {
        opacity: 0.6;
      }

      .cls-5 {
        clip-path: url(#clip-path-2);
      }

      .cls-6 {
        stroke: #f28b50;
        stroke-miterlimit: 10;
        stroke-width: 2px;
      }
    </style>
    <clipPath id="clip-path">
      <path id="Caminho_23396" data-name="Caminho 23396" class="cls-1" d="M916.082,333.958c-7.052,2.949-14.039,7.074-18.742,13.225a71.468,71.468,0,0,1-15.776,12.724c-10.213,6.238-22.135,10.276-27.567,14.861-5.118,4.321-6.38,11.874-8.443,18.34-2.469,7.735-5,15.609-5.118,23.748-.888,62.364,34.88,57.972,34.88,57.972,10.639-1.264,16.4-15.921,27.1-16.451,4.932-.244,9.54,2.792,12.766,6.632s5.228,8.581,7.96,12.806c12.274,18.979,31.741,19.679,43.906,18.521,27.752-2.644,41.77-22.009,45.559-35.072,5.464-18.838,3.294-42-6.236-58.1-6.118-10.337-13.307-18.577-27.4-19.665a92.45,92.45,0,0,0-14.607-.228,13.071,13.071,0,0,1-11.622-4.451c-3.129-3.484-3.431-8.668-3.6-13.406-.406-11.292-1.929-24.28-11.119-30.489a19.762,19.762,0,0,0-11.174-3.206,28.222,28.222,0,0,0-10.761,2.238" transform="translate(-840.419 -331.72)"/>
    </clipPath>
    <clipPath id="clip-path-2">
      <rect id="Retângulo_2395" data-name="Retângulo 2395" class="cls-1" width="102.604" height="160.088"/>
    </clipPath>
  </defs>
  <g id="Grupo_5171" data-name="Grupo 5171" transform="translate(19500.67 15544.433)">
    <path id="Caminho_23394" data-name="Caminho 23394" class="cls-2" d="M936.315,403.166c-6.194-10.337-13.474-18.577-27.745-19.664a94.693,94.693,0,0,0-14.791-.228,13.323,13.323,0,0,1-11.768-4.452c-3.169-3.484-3.474-8.668-3.647-13.405-.412-11.292-1.953-24.28-11.259-30.49-6.442-4.3-15.069-3.917-22.211-.968-6.092,2.516-12.131,5.893-16.732,10.648l-.026.019c-9.331,7.071-39.77,12.389-55.905,15.663s-25.278,11.823-25.278,11.823c-28.146,20.19-26.368,54.22-22.668,64.788s9.356,20.642,17.654,28.052c12.988,11.6,31.187,15.542,48.481,14.962,4.892-.164,9.873-.678,14.345-2.7,6.151-2.774,10.774-8.113,16.389-11.879,4.708-3.157,9.935-5.983,15.516-5.132a10.7,10.7,0,0,1,3.076.936,22.166,22.166,0,0,1,4.233,3.867c3.266,3.841,5.293,8.582,8.06,12.807,12.428,18.978,32.14,19.679,44.458,18.52,28.1-2.643,42.3-22.008,46.132-35.071,5.533-18.838,3.335-42-6.314-58.1" transform="translate(-20222.9 -15876.153)"/>
    <g id="Grupo_2033" data-name="Grupo 2033" transform="translate(-19452.418 -15544.434)">
      <g id="Grupo_2032" data-name="Grupo 2032" class="cls-3">
        <g id="Grupo_2031" data-name="Grupo 2031" class="cls-4" transform="translate(81.76 44.295)">
          <g id="Grupo_2030" data-name="Grupo 2030">
            <g id="Grupo_2029" data-name="Grupo 2029" class="cls-5">
              <path id="Caminho_23395" data-name="Caminho 23395" class="cls-6" d="M1154.254,551.822c3.695-18.655.11-38.265-7.271-55.728-2.373-5.616-6.437-11.893-12.389-11.588-2.96.152-5.56,1.982-7.915,3.83-5.041,3.954-9.995,8.607-11.975,14.8-1.663,5.2-1.023,10.829-.736,16.293s.1,11.315-2.9,15.837-9.743,6.779-13.81,3.244c-2.1-1.828-3.026-4.7-3.59-7.469a45.248,45.248,0,0,1,3.239-27.787c3.261-7.035,8.285-13.049,11.95-19.871s5.915-15.155,3.071-22.379c-2.006-5.095-6.258-8.9-10.722-11.924-4.272-2.9-9.472-5.352-14.378-3.85-4.514,1.382-7.51,5.75-9.546,10.113a54.1,54.1,0,0,0-4.577,29.543c1.131,8.8,4.409,17.152,6.191,25.837,1.178,5.745,1.654,11.941-.669,17.305a6.592,6.592,0,0,1-3.111,3.655c-3.791,1.617-7.26-3.113-11.283-3.954a7.776,7.776,0,0,0-7.515,3.244,14.02,14.02,0,0,0-2.425,8.307c-.05,7.285,3.479,14.056,7.289,20.2,2.4,3.866,5.013,7.708,8.6,10.435,4.009,3.047,8.977,4.507,13.079,7.422a23.169,23.169,0,0,1,8.29,10.978c1.393,3.872,1.648,8.524-.714,11.864-2.557,3.616-7.628,4.664-11.784,3.344s-7.486-4.573-10.067-8.171a41.87,41.87,0,0,1-5.887-35.808c3.313-10.992,12.8-20.95,23.994-20.587a26.391,26.391,0,0,1,11.246,3.329c15.875,8.316,25.826,27.233,23.9,45.431" transform="translate(-1053.504 -444.375)"/>
            </g>
          </g>
        </g>
      </g>
    </g>
  </g>
</svg>
