<svg xmlns="http://www.w3.org/2000/svg" xmlns:xlink="http://www.w3.org/1999/xlink" width="250.002" height="184.626" viewBox="0 0 250.002 184.626">
  <defs>
    <clipPath id="clip-path">
      <path id="Caminho_23396" data-name="Caminho 23396" d="M925.1,334.225c-7.893,3.3-15.712,7.917-20.976,14.8a79.986,79.986,0,0,1-17.656,14.241c-11.43,6.981-24.773,11.5-30.852,16.632-5.728,4.836-7.14,13.288-9.449,20.526-2.763,8.656-5.6,17.469-5.728,26.578-.993,69.8,39.037,64.88,39.037,64.88,11.906-1.414,18.352-17.818,30.324-18.411,5.52-.273,10.676,3.124,14.287,7.422s5.851,9.6,8.909,14.333c13.737,21.24,35.523,22.024,49.138,20.728,31.059-2.959,46.748-24.632,50.988-39.251,6.115-21.083,3.687-47-6.979-65.024-6.847-11.569-14.893-20.791-30.665-22.008a103.467,103.467,0,0,0-16.348-.256,14.629,14.629,0,0,1-13.007-4.981c-3.5-3.9-3.839-9.7-4.031-15-.454-12.637-2.159-27.174-12.444-34.122a22.116,22.116,0,0,0-12.505-3.588,31.585,31.585,0,0,0-12.044,2.5" transform="translate(-840.419 -331.72)" fill="none"/>
    </clipPath>
    <clipPath id="clip-path-2">
      <rect id="Retângulo_2395" data-name="Retângulo 2395" width="114.831" height="179.164" fill="none"/>
    </clipPath>
  </defs>
  <g id="Grupo_5170" data-name="Grupo 5170" transform="translate(19500.67 15544.433)">
    <path id="Caminho_23394" data-name="Caminho 23394" d="M961.826,411.68c-6.933-11.569-15.08-20.791-31.051-22.008a105.976,105.976,0,0,0-16.553-.256,14.911,14.911,0,0,1-13.17-4.982c-3.547-3.9-3.888-9.7-4.081-15-.461-12.638-2.186-27.174-12.6-34.123-7.209-4.81-16.865-4.384-24.857-1.083-6.818,2.816-13.577,6.595-18.726,11.917l-.029.022c-10.443,7.913-44.51,13.866-62.567,17.529s-28.29,13.231-28.29,13.231c-31.5,22.6-29.511,60.681-25.37,72.508s10.471,23.1,19.758,31.4c14.536,12.981,34.9,17.394,54.258,16.746,5.474-.183,11.049-.759,16.054-3.017,6.883-3.1,12.057-9.08,18.342-13.295,5.269-3.533,11.119-6.7,17.365-5.743a11.97,11.97,0,0,1,3.442,1.047,24.8,24.8,0,0,1,4.738,4.327c3.656,4.3,5.924,9.6,9.021,14.333,13.909,21.24,35.97,22.024,49.756,20.727C948.713,513,964.6,491.323,968.893,476.7c6.192-21.083,3.733-47-7.066-65.024" transform="translate(-20222.9 -15876.153)" fill="#ffbb3c"/>
    <g id="Grupo_2033" data-name="Grupo 2033" transform="translate(-19446.668 -15544.434)">
      <g id="Grupo_2032" data-name="Grupo 2032" clip-path="url(#clip-path)">
        <g id="Grupo_2031" data-name="Grupo 2031" transform="translate(91.502 49.573)" opacity="0.6">
          <g id="Grupo_2030" data-name="Grupo 2030">
            <g id="Grupo_2029" data-name="Grupo 2029" clip-path="url(#clip-path-2)">
              <path id="Caminho_23395" data-name="Caminho 23395" d="M1166.214,564.579c4.135-20.879.124-42.825-8.137-62.368-2.656-6.285-7.2-13.31-13.866-12.969-3.312.17-6.223,2.219-8.859,4.287-5.641,4.425-11.185,9.632-13.4,16.559-1.861,5.818-1.145,12.119-.824,18.234s.106,12.663-3.25,17.724-10.9,7.587-15.455,3.63c-2.354-2.046-3.387-5.259-4.018-8.359a50.641,50.641,0,0,1,3.625-31.1c3.65-7.873,9.272-14.6,13.374-22.239s6.62-16.961,3.437-25.046c-2.245-5.7-7-9.955-12-13.345-4.781-3.243-10.6-5.989-16.091-4.308-5.052,1.547-8.4,6.435-10.683,11.318a60.544,60.544,0,0,0-5.122,33.063c1.266,9.849,4.934,19.2,6.929,28.916,1.319,6.429,1.851,13.364-.749,19.368a7.377,7.377,0,0,1-3.482,4.09c-4.242,1.81-8.125-3.484-12.627-4.425-3.141-.657-6.459,1.018-8.411,3.63a15.691,15.691,0,0,0-2.714,9.3c-.056,8.153,3.894,15.731,8.158,22.608,2.683,4.327,5.611,8.626,9.625,11.678,4.487,3.411,10.047,5.044,14.638,8.307a25.93,25.93,0,0,1,9.278,12.286c1.559,4.334,1.845,9.539-.8,13.277-2.862,4.047-8.536,5.22-13.188,3.743s-8.378-5.118-11.267-9.145a46.86,46.86,0,0,1-6.589-40.075c3.708-12.3,14.324-23.447,26.854-23.041a29.537,29.537,0,0,1,12.586,3.726c17.766,9.307,28.9,30.478,26.747,50.845" transform="translate(-1053.458 -444.328)" fill="none" stroke="#f28b50" stroke-miterlimit="10" stroke-width="2"/>
            </g>
          </g>
        </g>
      </g>
    </g>
  </g>
</svg>
