<svg xmlns="http://www.w3.org/2000/svg" xmlns:xlink="http://www.w3.org/1999/xlink" width="500.002" height="369.251" viewBox="0 0 500.002 369.251">
  <defs>
    <style>
      .cls-1, .cls-6 {
        fill: none;
      }

      .cls-2 {
        fill: #ffbb3c;
      }

      .cls-3 {
        clip-path: url(#clip-path);
      }

      .cls-4 {
        opacity: 0.6;
      }

      .cls-5 {
        clip-path: url(#clip-path-2);
      }

      .cls-6 {
        stroke: #f28b50;
        stroke-miterlimit: 10;
        stroke-width: 2px;
      }
    </style>
    <clipPath id="clip-path">
      <path id="Caminho_23396" data-name="Caminho 23396" class="cls-1" d="M1009.778,336.73c-15.785,6.6-31.424,15.833-41.951,29.6,0,0-12.453,14.518-35.312,28.481s-49.545,23-61.7,33.264c-11.455,9.671-14.28,26.577-18.9,41.051-5.526,17.313-11.2,34.939-11.456,53.156-1.987,139.591,78.074,129.76,78.074,129.76,23.813-2.829,36.7-35.636,60.648-36.822,11.04-.546,21.353,6.249,28.573,14.845s11.7,19.208,17.817,28.665c27.473,42.481,71.046,44.049,98.277,41.455,62.117-5.918,93.5-49.263,101.976-78.5,12.231-42.165,7.373-94-13.958-130.048-13.693-23.138-29.785-41.582-61.33-44.016-10.407-.8-22.3-1.434-32.7-.511s-18.937-2.084-26.013-9.962c-7-7.8-7.679-19.4-8.061-30.007-.909-25.274-4.318-54.347-24.888-68.245a44.233,44.233,0,0,0-25.011-7.177,63.17,63.17,0,0,0-24.088,5.01" transform="translate(-840.419 -331.72)"/>
    </clipPath>
    <clipPath id="clip-path-2">
      <rect id="Retângulo_2395" data-name="Retângulo 2395" class="cls-1" width="229.661" height="358.329"/>
    </clipPath>
  </defs>
  <g id="Grupo_5168" data-name="Grupo 5168" transform="translate(19500.67 15544.433)">
    <path id="Caminho_23394" data-name="Caminho 23394" class="cls-2" d="M1201.422,491.639c-13.865-23.138-30.16-41.582-62.1-44.015-10.537-.8-22.579-1.435-33.106-.511s-19.174-2.086-26.34-9.964c-7.093-7.8-7.776-19.4-8.162-30.006-.921-25.275-4.372-54.347-25.2-68.246-14.418-9.621-33.73-8.768-49.715-2.166-13.637,5.632-27.154,13.189-37.452,23.835l-.058.043c-20.886,15.826-89.02,27.732-125.134,35.059s-56.58,26.463-56.58,26.463c-63,45.191-59.021,121.361-50.739,145.016s20.942,46.2,39.515,62.79c29.072,25.963,69.807,34.787,108.516,33.491,10.949-.366,22.1-1.518,32.108-6.034,13.767-6.21,24.115-18.16,36.683-26.589,10.539-7.066,22.238-13.391,34.73-11.487a23.943,23.943,0,0,1,6.885,2.094,49.612,49.612,0,0,1,9.476,8.655c7.311,8.6,11.848,19.209,18.041,28.667,27.819,42.48,71.94,44.048,99.511,41.454,62.9-5.917,94.671-49.262,103.259-78.5,12.384-42.165,7.466-94-14.133-130.048" transform="translate(-20222.9 -15876.153)"/>
    <g id="Grupo_2033" data-name="Grupo 2033" transform="translate(-19392.666 -15544.434)">
      <g id="Grupo_2032" data-name="Grupo 2032" class="cls-3">
        <g id="Grupo_2031" data-name="Grupo 2031" class="cls-4" transform="translate(183.005 99.147)">
          <g id="Grupo_2030" data-name="Grupo 2030">
            <g id="Grupo_2029" data-name="Grupo 2029" class="cls-5">
              <path id="Caminho_23395" data-name="Caminho 23395" class="cls-6" d="M1278.539,684.387c8.27-41.757.247-85.649-16.274-124.737-5.312-12.57-14.409-26.62-27.732-25.937-6.625.34-12.446,4.437-17.717,8.573-11.282,8.85-22.371,19.265-26.8,33.119-3.723,11.636-2.29,24.238-1.648,36.468s.213,25.326-6.5,35.448-21.809,15.173-30.911,7.261c-4.707-4.091-6.774-10.518-8.036-16.718a101.281,101.281,0,0,1,7.25-62.2c7.3-15.747,18.545-29.208,26.748-44.479s13.239-33.923,6.874-50.091c-4.489-11.4-14.008-19.911-24-26.69-9.562-6.487-21.2-11.979-32.182-8.617-10.1,3.094-16.81,12.87-21.366,22.637A121.091,121.091,0,0,0,1096,534.553c2.531,19.7,9.869,38.392,13.858,57.833,2.638,12.858,3.7,26.728-1.5,38.735-1.469,3.393-3.625,6.756-6.964,8.18-8.485,3.62-16.25-6.968-25.255-8.85-6.282-1.314-12.919,2.035-16.821,7.261s-5.383,12.008-5.428,18.595c-.113,16.306,7.788,31.462,16.316,45.215,5.366,8.654,11.221,17.252,19.25,23.356,8.974,6.821,20.094,10.089,29.275,16.614a51.858,51.858,0,0,1,18.556,24.572c3.117,8.668,3.689,19.079-1.6,26.555-5.724,8.094-17.073,10.44-26.377,7.486s-16.757-10.236-22.534-18.29c-16.229-22.63-21.272-53.3-13.178-80.149,7.416-24.6,28.648-46.894,53.707-46.081,8.8.285,17.329,3.343,25.171,7.451,35.533,18.613,57.807,60.956,53.494,101.691" transform="translate(-1053.028 -443.886)"/>
            </g>
          </g>
        </g>
      </g>
    </g>
  </g>
</svg>
