<svg xmlns="http://www.w3.org/2000/svg" xmlns:xlink="http://www.w3.org/1999/xlink" width="150.469" height="111.121" viewBox="0 0 150.469 111.121">
  <defs>
    <clipPath id="clip-path">
      <path id="Caminho_23396" data-name="Caminho 23396" d="M884.581,333.228a26.6,26.6,0,0,0-10.939,8.909,43.858,43.858,0,0,1-9.208,8.571c-5.961,4.2-12.919,6.922-16.09,10.01-2.987,2.91-3.724,8-4.928,12.354-1.441,5.21-2.92,10.514-2.987,16-.518,42.008,20.359,39.05,20.359,39.05,6.209-.851,9.571-10.724,15.815-11.081,2.879-.164,5.568,1.88,7.451,4.467s3.051,5.78,4.646,8.626c7.164,12.784,18.526,13.256,25.626,12.475,16.2-1.781,24.38-14.825,26.591-23.624,3.189-12.689,1.923-28.289-3.64-39.136-3.571-6.963-7.767-12.513-15.992-13.246a46.785,46.785,0,0,0-8.526-.154,7.127,7.127,0,0,1-6.783-3c-1.826-2.347-2-5.839-2.1-9.03-.237-7.606-1.126-16.355-6.49-20.537a10.435,10.435,0,0,0-6.522-2.16,14.609,14.609,0,0,0-6.281,1.508" transform="translate(-840.419 -331.72)" fill="none"/>
    </clipPath>
    <clipPath id="clip-path-2">
      <rect id="Retângulo_2395" data-name="Retângulo 2395" width="59.886" height="107.834" fill="none"/>
    </clipPath>
  </defs>
  <g id="Grupo_5171" data-name="Grupo 5171" transform="translate(19500.67 15544.433)">
    <path id="Caminho_23394" data-name="Caminho 23394" d="M866.437,379.846c-4.173-6.963-9.076-12.513-18.689-13.246a63.781,63.781,0,0,0-9.963-.154,8.975,8.975,0,0,1-7.927-3c-2.135-2.347-2.34-5.839-2.456-9.03-.277-7.606-1.316-16.355-7.584-20.538-4.339-2.9-10.151-2.639-14.961-.652a33.169,33.169,0,0,0-11.271,7.173l-.018.013c-6.285,4.763-26.789,8.345-37.657,10.55a37.531,37.531,0,0,0-17.027,7.964c-18.959,13.6-17.762,36.522-15.269,43.641s6.3,13.9,11.892,18.9c8.749,7.813,21.008,10.469,32.656,10.079a25.421,25.421,0,0,0,9.662-1.816c4.143-1.869,7.257-5.465,11.039-8,3.172-2.126,6.692-4.03,10.451-3.457a7.205,7.205,0,0,1,2.072.63,14.931,14.931,0,0,1,2.852,2.6c2.2,2.587,3.565,5.781,5.429,8.627,8.372,12.784,21.649,13.256,29.947,12.475,18.929-1.781,28.49-14.825,31.074-23.624,3.727-12.689,2.247-28.289-4.253-39.136" transform="translate(-20222.9 -15876.153)" fill="#ffbb3c"/>
    <g id="Grupo_2033" data-name="Grupo 2033" transform="translate(-19452.418 -15544.434)">
      <g id="Grupo_2032" data-name="Grupo 2032" clip-path="url(#clip-path)">
        <g id="Grupo_2031" data-name="Grupo 2031" transform="translate(47.72 29.837)" opacity="0.6">
          <g id="Grupo_2030" data-name="Grupo 2030">
            <g id="Grupo_2029" data-name="Grupo 2029" clip-path="url(#clip-path-2)">
              <path id="Caminho_23395" data-name="Caminho 23395" d="M1112.468,516.88c2.156-12.566.064-25.775-4.244-37.538-1.385-3.783-3.757-8.011-7.231-7.805-1.728.1-3.245,1.335-4.62,2.58-2.942,2.663-5.833,5.8-6.989,9.967-.971,3.5-.6,7.294-.43,10.975s.056,7.621-1.695,10.668-5.687,4.566-8.06,2.185a9.417,9.417,0,0,1-2.1-5.031,34.789,34.789,0,0,1,1.89-18.717c1.9-4.739,4.836-8.79,6.975-13.385s3.452-10.209,1.793-15.074a17.759,17.759,0,0,0-6.258-8.032c-2.493-1.952-5.528-3.6-8.392-2.593-2.635.931-4.383,3.873-5.571,6.812a41.493,41.493,0,0,0-2.671,19.9c.66,5.928,2.573,11.554,3.613,17.4.688,3.87.965,8.044-.391,11.657a4.325,4.325,0,0,1-1.816,2.462c-2.212,1.089-4.237-2.1-6.585-2.663a4.3,4.3,0,0,0-4.386,2.185,10.521,10.521,0,0,0-1.415,5.6c-.029,4.907,2.031,9.468,4.255,13.607a24.769,24.769,0,0,0,5.02,7.029c2.34,2.053,5.24,3.036,7.634,5a15.582,15.582,0,0,1,4.839,7.395c.813,2.608.962,5.741-.417,7.991a5.706,5.706,0,0,1-6.878,2.253c-2.426-.889-4.37-3.08-5.876-5.5a31.845,31.845,0,0,1-3.436-24.12c1.934-7.4,7.47-14.112,14-13.867a13.928,13.928,0,0,1,6.564,2.242c9.265,5.6,15.074,18.344,13.949,30.6" transform="translate(-1053.664 -444.504)" fill="none" stroke="#f28b50" stroke-miterlimit="10" stroke-width="2"/>
            </g>
          </g>
        </g>
      </g>
    </g>
  </g>
</svg>
