<svg id="Grupo_2514" data-name="Grupo 2514" xmlns="http://www.w3.org/2000/svg" xmlns:xlink="http://www.w3.org/1999/xlink" width="202.527" height="93.323" viewBox="0 0 202.527 93.323">
  <defs>
    <clipPath id="clip-path">
      <rect id="Ret창ngulo_2591" data-name="Ret창ngulo 2591" width="202.527" height="93.323" fill="none"/>
    </clipPath>
    <clipPath id="clip-path-2">
      <path id="Caminho_23599" data-name="Caminho 23599" d="M0,122.292a17.437,17.437,0,1,0,17.437-17.437A17.437,17.437,0,0,0,0,122.292" transform="translate(0 -104.855)" fill="none"/>
    </clipPath>
    <linearGradient id="linear-gradient" y1="1.702" x2="0.009" y2="1.702" gradientUnits="objectBoundingBox">
      <stop offset="0" stop-color="#ffbb3c"/>
      <stop offset="1" stop-color="#f28b50"/>
    </linearGradient>
  </defs>
  <g id="Grupo_2511" data-name="Grupo 2511">
    <g id="Grupo_2510" data-name="Grupo 2510" clip-path="url(#clip-path)">
      <path id="Caminho_23592" data-name="Caminho 23592" d="M235.884,77.959V44.681a3.257,3.257,0,0,1,.534-.086c4.886.033,9.772.019,14.656.13a23.387,23.387,0,0,1,7.807,1.513A12.719,12.719,0,0,1,267.264,56a22.86,22.86,0,0,1-.157,10.788c-1.363,5.147-4.773,8.314-9.743,9.926a27.291,27.291,0,0,1-8.33,1.265C244.879,78,240.725,78,236.57,78c-.2,0-.408-.026-.686-.044m8.945-6.492c2.072-.1,4.069-.043,6.022-.313a8.072,8.072,0,0,0,7.036-5.458,13.078,13.078,0,0,0,.154-8.244,8.08,8.08,0,0,0-5.846-5.689,23.082,23.082,0,0,0-7.235-.475c-.039,0-.076.063-.132.113Z" transform="translate(-159.467 -30.149)" fill="#374c8c"/>
      <path id="Caminho_23593" data-name="Caminho 23593" d="M377.009,77.942h-8.851V63.732H357.642V77.926h-8.9v-33.3h8.86V57.315H368.11V44.661a4.259,4.259,0,0,1,.593-.092c2.562-.006,5.124.007,7.686-.013.511,0,.678.16.678.673q-.018,16.117-.012,32.233c0,.127-.023.255-.046.481" transform="translate(-235.764 -30.121)" fill="#374c8c"/>
      <path id="Caminho_23594" data-name="Caminho 23594" d="M482.638,44.551c.03.256.065.409.065.561,0,6.953.06,13.906-.041,20.857-.1,6.689-3.793,11-10.356,12.186a20.208,20.208,0,0,1-12.138-1.142,10.9,10.9,0,0,1-6.51-8.783,22.686,22.686,0,0,1-.251-3.513c-.024-6.43-.012-12.86-.01-19.29,0-.256.026-.511.043-.82h8.876v.959c0,5.907-.04,11.815.026,17.721a20.664,20.664,0,0,0,.583,4.8,5.357,5.357,0,0,0,10.255.078,20.4,20.4,0,0,0,.58-4.873c.066-5.959.038-11.918.011-17.878,0-.7.193-.886.881-.875,2.4.04,4.809.016,7.214.015h.773" transform="translate(-306.511 -30.108)" fill="#374c8c"/>
      <path id="Caminho_23595" data-name="Caminho 23595" d="M158.887,44.684c-.23,2.309-.461,4.639-.705,7.094-.36-.157-.635-.265-.9-.394A15.66,15.66,0,0,0,146.874,49.8a9.822,9.822,0,0,0-7.722,8.721,11.039,11.039,0,0,0,1.83,8.129c2.1,2.849,5.106,3.95,8.513,4.127a20.361,20.361,0,0,0,7.393-1.137c.5-.161.986-.337,1.523-.521a2.1,2.1,0,0,1,.138.449q.187,2.934.355,5.87c.019.332.087.639-.416.763-5.3,1.316-10.619,1.806-15.965.376-4.937-1.321-9.1-3.869-11.116-8.743-2.7-6.51-2.323-12.91,2.023-18.691,2.484-3.3,6.095-4.911,10.064-5.741a29.874,29.874,0,0,1,15.148,1.121,1.286,1.286,0,0,1,.245.158" transform="translate(-87.682 -28.986)" fill="#374c8c"/>
      <path id="Caminho_23596" data-name="Caminho 23596" d="M586.763,13.45c0,3.343,0,6.7,0,10.05q-.005,7.856-.007,15.713c-.776-.757-1.479-1.442-2.091-2.056-1.12-1.125-2.244-2.246-3.337-3.4-.238-.251-.694-.626-.694-.626s-.387.383-.642.642c-3.154,3.209-6.336,6.39-9.509,9.58a2.591,2.591,0,0,1-.315.254q0-12.119,0-24.239V.022s.1,0,1.207,0c4.8,0,9.594.018,14.39-.017.811-.006,1,0,1,0-.008,4.382-.009,8.9-.009,13.447" transform="translate(-385.458 0)" fill="#00b1ed"/>
      <path id="Caminho_23597" data-name="Caminho 23597" d="M586.751,145.206v.267h-16.6v-.735c0-3.025-.022-6.671,0-9.7h0l.316-.279q6.022-6.037,12.084-12.034c.054-.053.13-.084.089-.058,1.4,1.333,1.934,1.822,3.294,3.144l.8.928.014.016c0,6.024,0,12.422,0,18.446" transform="translate(-385.438 -82.925)" fill="#374c8c"/>
      <text id="Integridade" transform="translate(40.58 84.313)" fill="#00b1ed" font-size="23" font-family="Verdana-Bold, Verdana" font-weight="700"><tspan x="0" y="0">Integridade</tspan></text>
      <path id="Caminho_23598" data-name="Caminho 23598" d="M90.3,211.5a3.4,3.4,0,1,0,3.4-3.4,3.4,3.4,0,0,0-3.4,3.4" transform="translate(-61.044 -140.685)" fill="#374c8c"/>
    </g>
  </g>
  <g id="Grupo_2513" data-name="Grupo 2513" transform="translate(0 33.969)">
    <g id="Grupo_2512" data-name="Grupo 2512" clip-path="url(#clip-path-2)">
      <rect id="Ret창ngulo_2592" data-name="Ret창ngulo 2592" width="34.874" height="34.874" transform="translate(0 0)" fill="url(#linear-gradient)"/>
    </g>
  </g>
</svg>
